{"title":"Dalziel &amp; Pascoe S03","uid":15508618,"size":2808314547,"categoryP":"video","categoryS":"tv_shows","magnet":"?xt=urn:btih:61b6ad949efe9cfe3b068a8a32782bed68342418&amp;dn=Dalziel+%26amp%3B+Pascoe+S03&amp;tr=udp%3A%2F%2Ftracker.leechers-paradise.org%3A6969&amp;tr=udp%3A%2F%2Fzer0day.ch%3A1337&amp;tr=udp%3A%2F%2Fopen.demonii.com%3A1337&amp;tr=udp%3A%2F%2Ftracker.coppersurfer.tk%3A6969&amp;tr=udp%3A%2F%2Fexodus.desync.com%3A6969","seeders":2,"leechers":1,"uploader":"RedBaron58","files":4,"time":1470618805,"description":"Dalziel and Pascoe S03 DVDrip x264 mp4\r\n  \nhttp://www.imdb.com/title/tt0147760/\r\n\r\nThank you for your kind comments and feedback on my other torrents, your feedback is welcome.\r\n\r\nAbout the Series:\r\nThe series is primarily set in Yorkshire, and follows the work of two detectives that are \r\nthrown together as partners. Complete opposites. Different backgrounds, different beliefs, \r\ndifferent styles. They get on each other's nerves.\r\n\r\nEpisode 1 &quot;Under World&quot;\r\nDalziel and Pascoe investigate when the skeleton of missing miner Billy Farr is found \r\nin a mineshaft in the Yorkshire coalfields,\r\n\r\nEpisode 2 &quot;Child's Play&quot;\r\nThe funeral of an elderly Italian woman is interrupted by the arrival of her son, \r\nthought missing since 1944\r\n\r\nEpisode 3 &quot;Bones and Silence&quot;\r\nDalziel is happily relaxing in flat after a hard day's work, when across the street, \r\nhe notices a man pull a gun on his wife in the first floor flat.\r\n\r\nEpisode 4 &quot;The Wood Beyond&quot;\r\nA group of animal rights protesters who break into a medical facility find more than \r\nthey bargain for when one escapes from the clutches of security into the nearby woods, \r\nonly to find the remains of a dead body.\r\n\r\nI hope you enjoy.\r\n\r\nTechnical: (All episodes are encoded to the same settings)\r\n\r\nGeneral\r\nComplete name                            : I:Dalziel &amp; Pascoe S03Dalziel Pascoe S03E01 - Under World x264 RB58.mp4\r\nFormat                                   : MPEG-4\r\nFormat profile                           : Base Media / Version 2\r\nCodec ID                                 : mp42\r\nFile size                                : 672 MiB\r\nDuration                                 : 1h 33mn\r\nOverall bit rate mode                    : Variable\r\nOverall bit rate                         : 1 000 Kbps\r\nEncoded date                             : UTC 2016-07-28 11:23:02\r\nTagged date                              : UTC 2016-07-28 11:26:30\r\nWriting application                      : HandBrake 0.9.8 2012071700\r\n\r\nVideo\r\nID                                       : 1\r\nFormat                                   : AVC\r\nFormat/Info                              : Advanced Video Codec\r\nFormat profile                           :   \r\nFormat settings, CABAC                   : Yes\r\nFormat settings, ReFrames                : 4 frames\r\nCodec ID                                 : avc1\r\nCodec ID/Info                            : Advanced Video Coding\r\nDuration                                 : 1h 33mn\r\nBit rate                                 : 900 Kbps\r\nWidth                                    : 720 pixels\r\nHeight                                   : 574 pixels\r\nDisplay aspect ratio                     : 4:3\r\nFrame rate mode                          : Constant\r\nFrame rate                               : 25.000 fps\r\nColor space                              : YUV\r\nChroma subsampling                       : 4:2:0\r\nBit depth                                : 8 bits\r\nScan type                                : Progressive\r\nBits/(Pixel*Frame)                       : 0.087\r\nStream size                              : 605 MiB (90%)\r\nWriting library                          : x264 core 120\r\nEncoding settings                        : cabac=1 / ref=1 / deblock=1:0:0\r\nEncoded date                             : UTC 2016-07-28 11:23:02\r\nTagged date                              : UTC 2016-07-28 11:26:30\r\nColor range                              : Limited\r\nColor primaries                          : BT.601 NTSC\r\nTransfer characteristics                 : BT.709\r\nMatrix coefficients                      : BT.601\r\n\r\nAudio\r\nID                                       : 2\r\nFormat                                   : AAC\r\nFormat/Info                              : Advanced Audio Codec\r\nFormat profile                           : LC\r\nCodec ID                                 : 40\r\nDuration                                 : 1h 33mn\r\nBit rate mode                            : Variable\r\nBit rate                                 : 96.0 Kbps\r\nMaximum bit rate                         : 121 Kbps\r\nChannel(s)                               : 2 channels\r\nChannel positions                        : Front: L R\r\nSampling rate                            : 48.0 KHz\r\nCompression mode                         : Lossy\r\nStream size                              : 64.5 MiB (10%)\r\nTitle                                    : Stereo\r\nLanguage                                 : English","torrent":{"xt":"urn:btih:61b6ad949efe9cfe3b068a8a32782bed68342418","amp;dn":"Dalziel+%26amp%3B+Pascoe+S03","amp;tr":["udp%3A%2F%2Ftracker.leechers-paradise.org%3A6969","udp%3A%2F%2Fzer0day.ch%3A1337","udp%3A%2F%2Fopen.demonii.com%3A1337","udp%3A%2F%2Ftracker.coppersurfer.tk%3A6969","udp%3A%2F%2Fexodus.desync.com%3A6969"],"infoHash":"61b6ad949efe9cfe3b068a8a32782bed68342418","infoHashBuffer":{"type":"Buffer","data":[97,182,173,148,158,254,156,254,59,6,138,138,50,120,43,237,104,52,36,24]},"announce":[],"urlList":[]}}